<?xml version="1.0" encoding="utf-8"?>
<!-- Generator: Adobe Illustrator 22.1.0, SVG Export Plug-In . SVG Version: 6.00 Build 0)  -->
<svg version="1.1" id="Layer_1" xmlns="http://www.w3.org/2000/svg" xmlns:xlink="http://www.w3.org/1999/xlink" x="0px" y="0px"
	 viewBox="0 0 841.9 595.3" style="enable-background:new 0 0 841.9 595.3;" xml:space="preserve">
<style type="text/css">
	.st0{fill:#2B6BB2;}
	.st1{fill:#00489A;}
</style>
<path class="st0" d="M577.2,220.8l-138.5,78.1l-5.9-3.4l-145.9-83.7c-19.7-11.3-44.3,2.5-44.2,24.8l0.6,127.2
	c-0.3-1.6-0.4-3.2-0.5-4.9l-1.2-165l-1.2-165C240.2,6.6,264.7-7.3,284.5,4l146.2,83.3l146.2,83.3
	C596.6,181.9,596.8,209.8,577.2,220.8z"/>
<path class="st1" d="M438.8,299.2l-6.5,4.7L287.5,410.2c-18.1,13.3-40.6-1.4-44-26.6l-0.6-165.4c-0.1-29,24.4-46.9,44.2-32.2
	l145.9,108.8L438.8,299.2z"/>
<path class="st0" d="M579,429.4l-145.1,81.4l-145.1,81.4c-19.6,11-44.3-3.1-44.4-25.5l-0.8-165l-0.2-37.8
	c3.4,19.4,25.9,30.7,44,20.5l144.9-81.7l6.5-3.6l140,80.3C598.5,390.5,598.6,418.4,579,429.4z"/>
</svg>
